# xmcd CD database file
#
# Track frame offsets:
#	182
#	19615
#	53612
#	74937
#	103210
#	123892
#	146782
#	168817
#	184722
#	197332
#	234415
#
# Disc length: 3309 seconds
#
# Revision: 0
# Processed by: cddbd v1.5.2PL0 Copyright (c) Steve Scherf et al.
# Submitted via: CDex 1.50
#
DISCID=940ceb0b
DTITLE=The Raven - Absence of Uniformity
DYEAR=1900
DGENRE=Blues
TTITLE0=7-11
TTITLE1=Romeo and Juliet
TTITLE2=Jazz Thang
TTITLE3=Vampiress
TTITLE4=Mitakuye Oyasin
TTITLE5=Get It Together
TTITLE6=Sing For My Supper
TTITLE7=Ain't No Machine
TTITLE8=Little Bit
TTITLE9=This is the Blues
TTITLE10=Don't Cry For Louie 
EXTD=
EXTT0=
EXTT1=
EXTT2=
EXTT3=
EXTT4=
EXTT5=
EXTT6=
EXTT7=
EXTT8=
EXTT9=
EXTT10=
PLAYORDER=
